<svg width="0" height="0" class="hidden">
  <symbol viewBox="0 0 0 0" id="sprite">
    <symbol fill="none" xmlns="http://www.w3.org/2000/svg" viewBox="0 0 102 16" id="logo">
      <path d="M101.071 7.64528C100.388 7.64528 99.7639 7.68469 99.1991 7.76351C98.6342 7.84232 98.0234 7.99996 97.3666 8.23641V15.7635H93.938V4.57138H96.4799L96.9922 5.89158C97.6753 5.33986 98.3452 4.94577 99.002 4.70931C99.6589 4.47286 100.349 4.35463 101.071 4.35463V7.64528Z" fill="#3470FF"></path>
      <path d="M92.2985 15.6453C91.8781 15.7373 91.5037 15.803 91.1753 15.8424C90.8601 15.8818 90.4857 15.9015 90.0522 15.9015C88.7911 15.9015 87.9635 15.4943 87.5694 14.6798C87.0177 15.087 86.466 15.3957 85.9142 15.6059C85.3625 15.8161 84.7582 15.9212 84.1014 15.9212C83.5103 15.9212 82.9783 15.7964 82.5054 15.5468C82.0324 15.2972 81.6646 14.9622 81.4019 14.5419C81.1392 14.1215 81.0078 13.6617 81.0078 13.1626C81.0078 12.3218 81.218 11.6585 81.6384 11.1724C82.0719 10.6732 82.6499 10.2791 83.3723 9.99014C84.0948 9.68801 85.1917 9.32676 86.663 8.9064L87.2541 8.72906V8.65024C87.2541 7.4417 86.7024 6.83743 85.599 6.83743C85.0604 6.83743 84.4824 6.95566 83.865 7.19211C83.2476 7.42856 82.5382 7.80952 81.7369 8.33497L81.0866 5.97043C81.9799 5.45812 82.8863 5.05746 83.8058 4.76846C84.7385 4.47946 85.7238 4.33496 86.7615 4.33496C88.0226 4.33496 88.9881 4.67651 89.6581 5.35959C90.3412 6.04268 90.6827 7.21181 90.6827 8.86699V12.6108C90.6827 12.8998 90.7418 13.11 90.86 13.2414C90.9783 13.3596 91.1688 13.4187 91.4315 13.4187C91.6811 13.4187 91.9307 13.3859 92.1803 13.3202L92.2985 15.6453ZM84.4364 12.7094C84.4364 12.9721 84.5021 13.1626 84.6334 13.2808C84.7779 13.399 85.0013 13.4581 85.3034 13.4581C85.8551 13.4581 86.5054 13.2217 87.2541 12.7488V10.6601L86.9586 10.7586C85.9733 11.1133 85.3034 11.4286 84.9487 11.7044C84.6072 11.9672 84.4364 12.3021 84.4364 12.7094Z" fill="#3470FF"></path>
      <path d="M75.1822 16C73.5533 16 72.174 15.6847 71.0443 15.0542C69.9145 14.4105 69.0673 13.5632 68.5024 12.5123C67.9507 11.4482 67.6748 10.2923 67.6748 9.0443C67.6748 7.80949 67.9638 6.66663 68.5418 5.61573C69.1329 4.56482 70.0065 3.7241 71.1625 3.09355C72.3185 2.46301 73.7109 2.14774 75.3398 2.14774C76.8637 2.14774 78.2036 2.44331 79.3596 3.03444L78.6502 5.5172C78.1642 5.26761 77.6584 5.07057 77.133 4.92607C76.6075 4.76843 76.0098 4.68962 75.3398 4.68962C74.486 4.68962 73.7438 4.88666 73.1132 5.28075C72.4958 5.6617 72.0229 6.18716 71.6945 6.85711C71.3792 7.51392 71.2216 8.24956 71.2216 9.06401C71.2216 10.3514 71.5632 11.4088 72.2462 12.2364C72.9293 13.0509 73.908 13.4581 75.1822 13.4581C76.2725 13.4581 77.4482 13.1888 78.7093 12.6502L79.3793 15.0739C78.8407 15.3497 78.197 15.5731 77.4482 15.7438C76.6995 15.9146 75.9441 16 75.1822 16Z" fill="#3470FF"></path>
      <path d="M61.7836 0H65.2121V15.7636H61.7836V0Z" fill="#101828"></path>
      <path d="M60.1439 15.6453C59.7236 15.7373 59.3492 15.803 59.0208 15.8424C58.7055 15.8818 58.3311 15.9015 57.8976 15.9015C56.6365 15.9015 55.8089 15.4943 55.4149 14.6798C54.8631 15.087 54.3114 15.3957 53.7597 15.6059C53.208 15.8161 52.6037 15.9212 51.9469 15.9212C51.3557 15.9212 50.8237 15.7964 50.3508 15.5468C49.8779 15.2972 49.5101 14.9622 49.2474 14.5419C48.9846 14.1215 48.8533 13.6617 48.8533 13.1626C48.8533 12.3218 49.0635 11.6585 49.4838 11.1724C49.9173 10.6732 50.4953 10.2791 51.2178 9.99014C51.9403 9.68801 53.0372 9.32676 54.5085 8.9064L55.0996 8.72906V8.65024C55.0996 7.4417 54.5479 6.83743 53.4444 6.83743C52.9058 6.83743 52.3278 6.95566 51.7104 7.19211C51.093 7.42856 50.3837 7.80952 49.5823 8.33497L48.9321 5.97043C49.8254 5.45812 50.7318 5.05746 51.6513 4.76846C52.584 4.47946 53.5692 4.33496 54.607 4.33496C55.8681 4.33496 56.8336 4.67651 57.5035 5.35959C58.1866 6.04268 58.5282 7.21181 58.5282 8.86699V12.6108C58.5282 12.8998 58.5873 13.11 58.7055 13.2414C58.8237 13.3596 59.0142 13.4187 59.2769 13.4187C59.5265 13.4187 59.7761 13.3859 60.0257 13.3202L60.1439 15.6453ZM52.2818 12.7094C52.2818 12.9721 52.3475 13.1626 52.4789 13.2808C52.6234 13.399 52.8467 13.4581 53.1488 13.4581C53.7006 13.4581 54.3508 13.2217 55.0996 12.7488V10.6601L54.804 10.7586C53.8188 11.1133 53.1488 11.4286 52.7942 11.7044C52.4526 11.9672 52.2818 12.3021 52.2818 12.7094Z" fill="#101828"></path>
      <path d="M47.6242 15.0345C47.2301 15.3104 46.7572 15.5272 46.2055 15.6848C45.6669 15.8293 45.1414 15.9015 44.6291 15.9015C43.2367 15.9015 42.1989 15.5994 41.5158 14.9951C40.8327 14.3777 40.4912 13.4976 40.4912 12.3547V6.99512H38.8163V5.55669L40.9247 4.7094L41.8705 1.69461H43.9197V4.57147H47.0725V6.99512H43.9197V11.5271C43.9197 12.2234 44.0314 12.716 44.2547 13.005C44.478 13.294 44.813 13.4385 45.2596 13.4385C45.8376 13.4385 46.4485 13.2677 47.0922 12.9262L47.6242 15.0345Z" fill="#101828"></path>
      <path d="M33.1902 4.33496C34.6483 4.33496 35.6532 4.72248 36.2049 5.49752C36.7698 6.27257 37.0522 7.38915 37.0522 8.84728V15.7636H33.6237V9.28078C33.6237 8.36124 33.512 7.72413 33.2887 7.36945C33.0785 7.01477 32.6647 6.83743 32.0473 6.83743C31.3773 6.83743 30.6943 7.06075 29.998 7.50738V15.7636H26.5695V4.57142H29.1113L29.466 5.49752C30.7534 4.72248 31.9948 4.33496 33.1902 4.33496Z" fill="#101828"></path>
      <path d="M17.0283 10.798C17.094 11.7307 17.3239 12.4204 17.718 12.867C18.1121 13.3136 18.7163 13.5369 19.5308 13.5369C20.1351 13.5369 20.6934 13.4319 21.2057 13.2217C21.7311 12.9984 22.3288 12.67 22.9988 12.2365L23.9249 14.4039C23.2287 14.9688 22.539 15.376 21.8559 15.6256C21.1728 15.8752 20.3912 16 19.5111 16C18.2106 16 17.1203 15.7504 16.2402 15.2512C15.36 14.7389 14.7032 14.0493 14.2697 13.1823C13.8493 12.3021 13.6392 11.3038 13.6392 10.1872C13.6392 8.41379 14.1383 6.99506 15.1367 5.93102C16.1351 4.86698 17.5932 4.33496 19.5111 4.33496C21.0349 4.33496 22.1909 4.74875 22.9791 5.57634C23.7804 6.39079 24.1876 7.55336 24.2008 9.06403C24.2008 9.65517 24.1154 10.2332 23.9446 10.798H17.0283ZM20.8707 8.57142C20.8838 8.4926 20.8904 8.38751 20.8904 8.25615C20.8773 7.71756 20.7328 7.31034 20.4569 7.03447C20.181 6.74547 19.8001 6.60098 19.314 6.60098C18.1581 6.60098 17.4356 7.25779 17.1466 8.57142H20.8707Z" fill="#101828"></path>
      <path d="M5.43843 10.8375H3.5468V15.7636H0V2.36454H5.35962C7.27752 2.36454 8.67654 2.69294 9.55667 3.34976C10.4368 3.99344 10.8769 5.0115 10.8769 6.40395C10.8769 8.21676 10.2135 9.43187 8.88672 10.0493L12.6503 15.7636H8.55174L5.43843 10.8375ZM3.5468 8.3744H5.35962C6.05584 8.3744 6.55502 8.2299 6.85716 7.9409C7.17243 7.6519 7.33006 7.20527 7.33006 6.601C7.33006 5.97045 7.179 5.51725 6.87686 5.24139C6.57472 4.96553 6.06898 4.82759 5.35962 4.82759H3.5468V8.3744Z" fill="#101828"></path>
    </symbol>
    <symbol fill="none" xmlns="http://www.w3.org/2000/svg" viewBox="0 0 16 16" id="arrow-down">
      <path fill-rule="evenodd" clip-rule="evenodd" d="M1.14689 4.14689C1.19334 4.10033 1.24852 4.06339 1.30926 4.03818C1.37001 4.01297 1.43513 4 1.50089 4C1.56666 4 1.63178 4.01297 1.69253 4.03818C1.75327 4.06339 1.80845 4.10033 1.85489 4.14689L7.50089 9.79389L13.1469 4.14689C13.1934 4.10041 13.2486 4.06353 13.3093 4.03837C13.37 4.01321 13.4352 4.00026 13.5009 4.00026C13.5666 4.00026 13.6317 4.01321 13.6925 4.03837C13.7532 4.06353 13.8084 4.10041 13.8549 4.14689C13.9014 4.19338 13.9383 4.24857 13.9634 4.30931C13.9886 4.37005 14.0015 4.43515 14.0015 4.50089C14.0015 4.56664 13.9886 4.63174 13.9634 4.69248C13.9383 4.75322 13.9014 4.80841 13.8549 4.85489L7.85489 10.8549C7.80845 10.9015 7.75327 10.9384 7.69253 10.9636C7.63178 10.9888 7.56666 11.0018 7.50089 11.0018C7.43513 11.0018 7.37001 10.9888 7.30926 10.9636C7.24852 10.9384 7.19334 10.9015 7.14689 10.8549L1.14689 4.85489C1.10033 4.80845 1.06339 4.75327 1.03818 4.69253C1.01297 4.63178 1 4.56666 1 4.50089C1 4.43513 1.01297 4.37001 1.03818 4.30926C1.06339 4.24851 1.10033 4.19334 1.14689 4.14689Z" fill="#101828"></path>
    </symbol>
  <symbol fill="none" xmlns="http://www.w3.org/2000/svg" viewBox="0 0 16 16" id="arrow-up">
    <path fill-rule="evenodd" clip-rule="evenodd" d="M7.14663 4.14689C7.19308 4.10033 7.24825 4.06339 7.309 4.03818C7.36974 4.01297 7.43486 4 7.50063 4C7.5664 4 7.63152 4.01297 7.69226 4.03818C7.75301 4.06339 7.80819 4.10033 7.85463 4.14689L13.8546 10.1469C13.9485 10.2408 14.0013 10.3681 14.0013 10.5009C14.0013 10.6337 13.9485 10.761 13.8546 10.8549C13.7607 10.9488 13.6334 11.0015 13.5006 11.0015C13.3679 11.0015 13.2405 10.9488 13.1466 10.8549L7.50063 5.20789L1.85463 10.8549C1.76075 10.9488 1.63341 11.0015 1.50063 11.0015C1.36786 11.0015 1.24052 10.9488 1.14663 10.8549C1.05274 10.761 1 10.6337 1 10.5009C1 10.3681 1.05274 10.2408 1.14663 10.1469L7.14663 4.14689Z" fill="#101828"></path>
  </symbol>
  <symbol fill="none" xmlns="http://www.w3.org/2000/svg" viewBox="0 0 16 16" id="heart">
    <path d="M7.9999 2.74805L7.2829 2.01105C5.5999 0.281049 2.5139 0.878049 1.39989 3.05305C0.876895 4.07605 0.758895 5.55305 1.71389 7.43805C2.63389 9.25305 4.5479 11.427 7.9999 13.795C11.4519 11.427 13.3649 9.25305 14.2859 7.43805C15.2409 5.55205 15.1239 4.07605 14.5999 3.05305C13.4859 0.878049 10.3999 0.280049 8.7169 2.01005L7.9999 2.74805ZM7.9999 15C-7.33311 4.86805 3.27889 -3.03995 7.82389 1.14305C7.88389 1.19838 7.94256 1.25538 7.9999 1.31405C8.05623 1.25501 8.11494 1.1983 8.17589 1.14405C12.7199 -3.04195 23.3329 4.86705 7.9999 15Z" fill="#F2F4F7"></path>
  </symbol>
  <symbol fill="none" xmlns="http://www.w3.org/2000/svg" viewBox="0 0 16 16" id="heart-favourite">
    <path fill-rule="evenodd" clip-rule="evenodd" d="M7.99978 1.31405C12.4378 -3.24795 23.5338 4.73505 7.99978 15.0001C-7.53422 4.73605 3.56178 -3.24795 7.99978 1.31405Z" fill="#3470FF"></path>
  </symbol>
  <symbol fill="none" xmlns="http://www.w3.org/2000/svg" viewBox="0 0 12 15" id="location">
    <path d="M9.53063 8.38125C9.03938 9.37687 8.37375 10.3688 7.69313 11.2594C7.04677 12.0984 6.35642 12.9027 5.625 13.6687C4.89358 12.9027 4.20324 12.0984 3.55688 11.2594C2.87625 10.3688 2.21063 9.37687 1.71938 8.38125C1.2225 7.37531 0.9375 6.43313 0.9375 5.625C0.9375 4.3818 1.43136 3.18951 2.31044 2.31044C3.18951 1.43136 4.3818 0.9375 5.625 0.9375C6.8682 0.9375 8.06049 1.43136 8.93956 2.31044C9.81864 3.18951 10.3125 4.3818 10.3125 5.625C10.3125 6.43313 10.0266 7.37531 9.53063 8.38125ZM5.625 15C5.625 15 11.25 9.66938 11.25 5.625C11.25 4.13316 10.6574 2.70242 9.60248 1.64752C8.54758 0.592632 7.11684 0 5.625 0C4.13316 0 2.70242 0.592632 1.64752 1.64752C0.592632 2.70242 2.22302e-08 4.13316 0 5.625C0 9.66938 5.625 15 5.625 15Z" fill="#101828"></path>
    <path d="M5.625 7.5C5.12772 7.5 4.65081 7.30246 4.29917 6.95083C3.94754 6.59919 3.75 6.12228 3.75 5.625C3.75 5.12772 3.94754 4.65081 4.29917 4.29917C4.65081 3.94754 5.12772 3.75 5.625 3.75C6.12228 3.75 6.59919 3.94754 6.95082 4.29917C7.30246 4.65081 7.5 5.12772 7.5 5.625C7.5 6.12228 7.30246 6.59919 6.95082 6.95083C6.59919 7.30246 6.12228 7.5 5.625 7.5ZM5.625 8.4375C6.37092 8.4375 7.08629 8.14118 7.61374 7.61374C8.14118 7.08629 8.4375 6.37092 8.4375 5.625C8.4375 4.87908 8.14118 4.16371 7.61374 3.63626C7.08629 3.10882 6.37092 2.8125 5.625 2.8125C4.87908 2.8125 4.16371 3.10882 3.63626 3.63626C3.10882 4.16371 2.8125 4.87908 2.8125 5.625C2.8125 6.37092 3.10882 7.08629 3.63626 7.61374C4.16371 8.14118 4.87908 8.4375 5.625 8.4375Z" fill="#101828"></path>
  </symbol>
  <symbol fill="none" xmlns="http://www.w3.org/2000/svg" viewBox="0 0 16 16" id="check-circle">
    <g clip-path="url(#clip0_1_1233)">
      <path d="M8 15C6.14348 15 4.36301 14.2625 3.05025 12.9497C1.7375 11.637 1 9.85652 1 8C1 6.14348 1.7375 4.36301 3.05025 3.05025C4.36301 1.7375 6.14348 1 8 1C9.85652 1 11.637 1.7375 12.9497 3.05025C14.2625 4.36301 15 6.14348 15 8C15 9.85652 14.2625 11.637 12.9497 12.9497C11.637 14.2625 9.85652 15 8 15ZM8 16C10.1217 16 12.1566 15.1571 13.6569 13.6569C15.1571 12.1566 16 10.1217 16 8C16 5.87827 15.1571 3.84344 13.6569 2.34315C12.1566 0.842855 10.1217 0 8 0C5.87827 0 3.84344 0.842855 2.34315 2.34315C0.842855 3.84344 0 5.87827 0 8C0 10.1217 0.842855 12.1566 2.34315 13.6569C3.84344 15.1571 5.87827 16 8 16Z" fill="#101828"></path>
      <path d="M10.9703 4.97001L10.9503 4.99201L7.47734 9.41701L5.38434 7.32301C5.24216 7.19053 5.05412 7.1184 4.85982 7.12183C4.66551 7.12526 4.48013 7.20397 4.34272 7.34138C4.2053 7.4788 4.12659 7.66418 4.12316 7.85848C4.11974 8.05278 4.19186 8.24083 4.32434 8.38301L6.97034 11.03C7.04162 11.1012 7.1265 11.1572 7.21992 11.1949C7.31334 11.2325 7.41339 11.2509 7.51408 11.2491C7.61478 11.2472 7.71407 11.2251 7.80604 11.184C7.898 11.1429 7.98074 11.0838 8.04934 11.01L12.0413 6.02001C12.1773 5.87734 12.2516 5.6869 12.2482 5.48987C12.2449 5.29285 12.1641 5.10505 12.0234 4.9671C11.8827 4.82915 11.6933 4.75211 11.4963 4.75266C11.2992 4.7532 11.1103 4.83128 10.9703 4.97001Z" fill="#101828"></path>
    </g>
    <defs>
      <clipPath id="clip0_1_1233">
        <rect width="16" height="16" fill="white"></rect>
      </clipPath>
    </defs>
  </symbol>

  <symbol fill="none" xmlns="http://www.w3.org/2000/svg" viewBox="0 0 16 16" id="calendar">
    <g clip-path="url(#clip0_1_1247)">
      <path d="M3.5 0C3.63261 0 3.75979 0.0526784 3.85355 0.146447C3.94732 0.240215 4 0.367392 4 0.5V1H12V0.5C12 0.367392 12.0527 0.240215 12.1464 0.146447C12.2402 0.0526784 12.3674 0 12.5 0C12.6326 0 12.7598 0.0526784 12.8536 0.146447C12.9473 0.240215 13 0.367392 13 0.5V1H14C14.5304 1 15.0391 1.21071 15.4142 1.58579C15.7893 1.96086 16 2.46957 16 3V14C16 14.5304 15.7893 15.0391 15.4142 15.4142C15.0391 15.7893 14.5304 16 14 16H2C1.46957 16 0.960859 15.7893 0.585786 15.4142C0.210714 15.0391 0 14.5304 0 14V3C0 2.46957 0.210714 1.96086 0.585786 1.58579C0.960859 1.21071 1.46957 1 2 1H3V0.5C3 0.367392 3.05268 0.240215 3.14645 0.146447C3.24021 0.0526784 3.36739 0 3.5 0ZM2 2C1.73478 2 1.48043 2.10536 1.29289 2.29289C1.10536 2.48043 1 2.73478 1 3V14C1 14.2652 1.10536 14.5196 1.29289 14.7071C1.48043 14.8946 1.73478 15 2 15H14C14.2652 15 14.5196 14.8946 14.7071 14.7071C14.8946 14.5196 15 14.2652 15 14V3C15 2.73478 14.8946 2.48043 14.7071 2.29289C14.5196 2.10536 14.2652 2 14 2H2Z" fill="#101828"></path>
      <path d="M2.5 4C2.5 3.86739 2.55268 3.74021 2.64645 3.64645C2.74021 3.55268 2.86739 3.5 3 3.5H13C13.1326 3.5 13.2598 3.55268 13.3536 3.64645C13.4473 3.74021 13.5 3.86739 13.5 4V5C13.5 5.13261 13.4473 5.25979 13.3536 5.35355C13.2598 5.44732 13.1326 5.5 13 5.5H3C2.86739 5.5 2.74021 5.44732 2.64645 5.35355C2.55268 5.25979 2.5 5.13261 2.5 5V4ZM11 7.5C11 7.36739 11.0527 7.24021 11.1464 7.14645C11.2402 7.05268 11.3674 7 11.5 7H12.5C12.6326 7 12.7598 7.05268 12.8536 7.14645C12.9473 7.24021 13 7.36739 13 7.5V8.5C13 8.63261 12.9473 8.75979 12.8536 8.85355C12.7598 8.94732 12.6326 9 12.5 9H11.5C11.3674 9 11.2402 8.94732 11.1464 8.85355C11.0527 8.75979 11 8.63261 11 8.5V7.5ZM8 7.5C8 7.36739 8.05268 7.24021 8.14645 7.14645C8.24021 7.05268 8.36739 7 8.5 7H9.5C9.63261 7 9.75979 7.05268 9.85355 7.14645C9.94732 7.24021 10 7.36739 10 7.5V8.5C10 8.63261 9.94732 8.75979 9.85355 8.85355C9.75979 8.94732 9.63261 9 9.5 9H8.5C8.36739 9 8.24021 8.94732 8.14645 8.85355C8.05268 8.75979 8 8.63261 8 8.5V7.5ZM3 10.5C3 10.3674 3.05268 10.2402 3.14645 10.1464C3.24021 10.0527 3.36739 10 3.5 10H4.5C4.63261 10 4.75979 10.0527 4.85355 10.1464C4.94732 10.2402 5 10.3674 5 10.5V11.5C5 11.6326 4.94732 11.7598 4.85355 11.8536C4.75979 11.9473 4.63261 12 4.5 12H3.5C3.36739 12 3.24021 11.9473 3.14645 11.8536C3.05268 11.7598 3 11.6326 3 11.5V10.5ZM6 10.5C6 10.3674 6.05268 10.2402 6.14645 10.1464C6.24021 10.0527 6.36739 10 6.5 10H7.5C7.63261 10 7.75979 10.0527 7.85355 10.1464C7.94732 10.2402 8 10.3674 8 10.5V11.5C8 11.6326 7.94732 11.7598 7.85355 11.8536C7.75979 11.9473 7.63261 12 7.5 12H6.5C6.36739 12 6.24021 11.9473 6.14645 11.8536C6.05268 11.7598 6 11.6326 6 11.5V10.5Z" fill="#101828"></path>
    </g>
    <defs>
      <clipPath id="clip0_1_1247">
        <rect width="16" height="16" fill="white"></rect>
      </clipPath>
    </defs>
  </symbol>
  <symbol fill="none" xmlns="http://www.w3.org/2000/svg" viewBox="0 0 16 16" id="car">
    <g clip-path="url(#clip0_1_1250)">
      <path d="M4 9C4 9.26522 3.89464 9.51957 3.70711 9.70711C3.51957 9.89464 3.26522 10 3 10C2.73478 10 2.48043 9.89464 2.29289 9.70711C2.10536 9.51957 2 9.26522 2 9C2 8.73478 2.10536 8.48043 2.29289 8.29289C2.48043 8.10536 2.73478 8 3 8C3.26522 8 3.51957 8.10536 3.70711 8.29289C3.89464 8.48043 4 8.73478 4 9ZM14 9C14 9.26522 13.8946 9.51957 13.7071 9.70711C13.5196 9.89464 13.2652 10 13 10C12.7348 10 12.4804 9.89464 12.2929 9.70711C12.1054 9.51957 12 9.26522 12 9C12 8.73478 12.1054 8.48043 12.2929 8.29289C12.4804 8.10536 12.7348 8 13 8C13.2652 8 13.5196 8.10536 13.7071 8.29289C13.8946 8.48043 14 8.73478 14 9ZM6 8C5.73478 8 5.48043 8.10536 5.29289 8.29289C5.10536 8.48043 5 8.73478 5 9C5 9.26522 5.10536 9.51957 5.29289 9.70711C5.48043 9.89464 5.73478 10 6 10H10C10.2652 10 10.5196 9.89464 10.7071 9.70711C10.8946 9.51957 11 9.26522 11 9C11 8.73478 10.8946 8.48043 10.7071 8.29289C10.5196 8.10536 10.2652 8 10 8H6ZM4.862 4.276L3.906 6.19C3.86691 6.27065 3.84977 6.36018 3.8563 6.44957C3.86283 6.53896 3.8928 6.62505 3.94319 6.69917C3.99358 6.77329 4.06262 6.83282 4.14334 6.87176C4.22406 6.9107 4.31362 6.92769 4.403 6.921C5.313 6.848 6.753 6.751 8 6.751C9.247 6.751 10.688 6.848 11.597 6.921C11.6864 6.92769 11.7759 6.9107 11.8567 6.87176C11.9374 6.83282 12.0064 6.77329 12.0568 6.69917C12.1072 6.62505 12.1372 6.53896 12.1437 6.44957C12.1502 6.36018 12.1331 6.27065 12.094 6.19L11.138 4.277C11.0966 4.19387 11.0328 4.12391 10.9539 4.07499C10.8749 4.02606 10.7839 4.0001 10.691 4H5.309C5.21622 4 5.12527 4.02582 5.04633 4.07456C4.96739 4.12331 4.90356 4.19305 4.862 4.276Z" fill="#101828"></path>
      <path d="M2.51998 3.515C2.71288 3.065 3.03367 2.68155 3.44255 2.41223C3.85142 2.1429 4.33037 1.99957 4.81998 2H11.182C12.182 2 13.086 2.596 13.48 3.515L14.272 5.363C14.347 5.538 14.482 5.682 14.652 5.767C15.152 6.017 15.507 6.482 15.617 7.029L15.952 8.708C15.9853 8.86933 16.0016 9.03267 16.001 9.198V9.611C16.001 10.425 15.611 11.154 15.001 11.608V13.5C15.001 13.6326 14.9483 13.7598 14.8545 13.8536C14.7608 13.9473 14.6336 14 14.501 14H12.501C12.3684 14 12.2412 13.9473 12.1474 13.8536C12.0537 13.7598 12.001 13.6326 12.001 13.5V12.162C10.709 12.21 9.25598 12.25 8.00098 12.25C6.74598 12.25 5.29298 12.21 4.00098 12.162V13.5C4.00098 13.6326 3.9483 13.7598 3.85453 13.8536C3.76076 13.9473 3.63358 14 3.50098 14H1.50098C1.36837 14 1.24119 13.9473 1.14742 13.8536C1.05365 13.7598 1.00098 13.6326 1.00098 13.5V11.608C0.390977 11.154 0.000976562 10.425 0.000976562 9.611V9.198C0.00114439 9.03345 0.0175573 8.86932 0.0499766 8.708L0.384977 7.028C0.494977 6.482 0.849976 6.016 1.34898 5.767C1.52014 5.68215 1.65529 5.53884 1.72998 5.363L2.52198 3.515H2.51998ZM4.81998 3C4.52627 3.00002 4.23904 3.08626 3.9939 3.24803C3.74876 3.4098 3.5565 3.63997 3.44098 3.91L2.64898 5.757C2.481 6.15006 2.17863 6.47051 1.79598 6.661C1.68577 6.71563 1.58964 6.79493 1.51506 6.89275C1.44048 6.99056 1.38947 7.10426 1.36598 7.225L1.02998 8.904C1.01032 9.00077 1.00027 9.09925 0.999977 9.198V9.611C0.999977 10.407 1.61998 11.059 2.40798 11.095C3.96298 11.165 6.19398 11.25 7.99998 11.25C9.80598 11.25 12.037 11.166 13.592 11.095C13.9726 11.0765 14.3314 10.9118 14.5936 10.6354C14.8559 10.359 15.0015 9.99205 15 9.611V9.198C15 9.09933 14.99 9.00133 14.97 8.904L14.635 7.224C14.6113 7.10344 14.5603 6.98994 14.4857 6.89231C14.4111 6.79468 14.3151 6.71553 14.205 6.661C13.8223 6.47051 13.52 6.15006 13.352 5.757L12.56 3.909C12.4442 3.639 12.2518 3.40893 12.0064 3.24734C11.7611 3.08574 11.4737 2.99974 11.18 3H4.81998Z" fill="#101828"></path>
    </g>
    <defs>
      <clipPath id="clip0_1_1250">
        <rect width="16" height="16" fill="white"></rect>
      </clipPath>
    </defs>
  </symbol>
  <symbol fill="none" xmlns="http://www.w3.org/2000/svg" viewBox="0 0 16 16" id="fuel-pump">
    <g clip-path="url(#clip0_1_1254)">
      <path d="M3 2.5C3 2.36739 3.05268 2.24021 3.14645 2.14645C3.24021 2.05268 3.36739 2 3.5 2H8.5C8.63261 2 8.75979 2.05268 8.85355 2.14645C8.94732 2.24021 9 2.36739 9 2.5V7.5C9 7.63261 8.94732 7.75979 8.85355 7.85355C8.75979 7.94732 8.63261 8 8.5 8H3.5C3.36739 8 3.24021 7.94732 3.14645 7.85355C3.05268 7.75979 3 7.63261 3 7.5V2.5Z" fill="#101828"></path>
      <path d="M1 2C1 1.46957 1.21071 0.960859 1.58579 0.585786C1.96086 0.210714 2.46957 0 3 0L9 0C9.53043 0 10.0391 0.210714 10.4142 0.585786C10.7893 0.960859 11 1.46957 11 2V10C11.5304 10 12.0391 10.2107 12.4142 10.5858C12.7893 10.9609 13 11.4696 13 12V12.5C13 12.6326 13.0527 12.7598 13.1464 12.8536C13.2402 12.9473 13.3674 13 13.5 13C13.6326 13 13.7598 12.9473 13.8536 12.8536C13.9473 12.7598 14 12.6326 14 12.5V8H13.5C13.3674 8 13.2402 7.94732 13.1464 7.85355C13.0527 7.75979 13 7.63261 13 7.5V4.375C13 4.24239 13.0527 4.11521 13.1464 4.02145C13.2402 3.92768 13.3674 3.875 13.5 3.875H14.995C14.984 3.399 14.942 2.981 14.794 2.653C14.7148 2.46228 14.5767 2.30183 14.4 2.195C14.216 2.085 13.936 2 13.5 2C13.3674 2 13.2402 1.94732 13.1464 1.85355C13.0527 1.75979 13 1.63261 13 1.5C13 1.36739 13.0527 1.24021 13.1464 1.14645C13.2402 1.05268 13.3674 1 13.5 1C14.064 0.998667 14.5347 1.11067 14.912 1.336C15.295 1.564 15.546 1.887 15.706 2.243C16.001 2.898 16 3.708 16 4.324V7.499C16.0001 7.56474 15.9873 7.62987 15.9622 7.69065C15.9372 7.75143 15.9003 7.80666 15.8539 7.8532C15.8075 7.89974 15.7523 7.93665 15.6916 7.96184C15.6308 7.98703 15.5657 8 15.5 8H15V12.5C15 12.8978 14.842 13.2794 14.5607 13.5607C14.2794 13.842 13.8978 14 13.5 14C13.1022 14 12.7206 13.842 12.4393 13.5607C12.158 13.2794 12 12.8978 12 12.5V12C12 11.7348 11.8946 11.4804 11.7071 11.2929C11.5196 11.1054 11.2652 11 11 11V15H11.5C11.6326 15 11.7598 15.0527 11.8536 15.1464C11.9473 15.2402 12 15.3674 12 15.5C12 15.6326 11.9473 15.7598 11.8536 15.8536C11.7598 15.9473 11.6326 16 11.5 16H0.5C0.367392 16 0.240215 15.9473 0.146447 15.8536C0.0526784 15.7598 0 15.6326 0 15.5C0 15.3674 0.0526784 15.2402 0.146447 15.1464C0.240215 15.0527 0.367392 15 0.5 15H1V2ZM10 2C10 1.73478 9.89464 1.48043 9.70711 1.29289C9.51957 1.10536 9.26522 1 9 1H3C2.73478 1 2.48043 1.10536 2.29289 1.29289C2.10536 1.48043 2 1.73478 2 2V15H10V2Z" fill="#101828"></path>
    </g>
    <defs>
      <clipPath id="clip0_1_1254">
        <rect width="16" height="16" fill="white"></rect>
      </clipPath>
    </defs>
  </symbol>
  <symbol fill="none" xmlns="http://www.w3.org/2000/svg" viewBox="0 0 16 16" id="gear">
    <g clip-path="url(#clip0_1_1257)">
      <path d="M8.00088 4.75397C7.57461 4.75397 7.15252 4.83793 6.75869 5.00105C6.36487 5.16418 6.00703 5.40328 5.70561 5.7047C5.4042 6.00612 5.1651 6.36395 5.00197 6.75778C4.83884 7.1516 4.75488 7.5737 4.75488 7.99997C4.75488 8.42624 4.83884 8.84833 5.00197 9.24216C5.1651 9.63598 5.4042 9.99382 5.70561 10.2952C6.00703 10.5967 6.36487 10.8358 6.75869 10.9989C7.15252 11.162 7.57461 11.246 8.00088 11.246C8.86178 11.246 9.68741 10.904 10.2962 10.2952C10.9049 9.68649 11.2469 8.86086 11.2469 7.99997C11.2469 7.13907 10.9049 6.31344 10.2962 5.7047C9.68741 5.09596 8.86178 4.75397 8.00088 4.75397ZM5.75488 7.99997C5.75488 7.40429 5.99151 6.83301 6.41272 6.41181C6.83393 5.9906 7.40521 5.75397 8.00088 5.75397C8.59656 5.75397 9.16784 5.9906 9.58904 6.41181C10.0103 6.83301 10.2469 7.40429 10.2469 7.99997C10.2469 8.59564 10.0103 9.16692 9.58904 9.58813C9.16784 10.0093 8.59656 10.246 8.00088 10.246C7.40521 10.246 6.83393 10.0093 6.41272 9.58813C5.99151 9.16692 5.75488 8.59564 5.75488 7.99997Z" fill="#101828"></path>
      <path d="M9.79648 1.34299C9.26948 -0.447012 6.73148 -0.447012 6.20448 1.34299L6.11048 1.66199C6.07367 1.78694 6.00937 1.90207 5.92229 1.99895C5.83521 2.09582 5.72756 2.17198 5.60722 2.22184C5.48688 2.2717 5.35691 2.294 5.22683 2.28711C5.09675 2.28021 4.96987 2.24429 4.85548 2.18199L4.56348 2.02199C2.92348 1.12999 1.13048 2.92399 2.02348 4.56299L2.18248 4.85499C2.24478 4.96938 2.2807 5.09627 2.28759 5.22634C2.29449 5.35642 2.27219 5.48639 2.22233 5.60673C2.17247 5.72707 2.09631 5.83472 1.99943 5.9218C1.90256 6.00889 1.78743 6.07318 1.66248 6.10999L1.34348 6.20399C-0.446523 6.73099 -0.446523 9.26899 1.34348 9.79599L1.66248 9.88999C1.78743 9.92679 1.90256 9.99109 1.99943 10.0782C2.09631 10.1653 2.17247 10.2729 2.22233 10.3932C2.27219 10.5136 2.29449 10.6436 2.28759 10.7736C2.2807 10.9037 2.24478 11.0306 2.18248 11.145L2.02248 11.437C1.13048 13.077 2.92348 14.871 4.56348 13.977L4.85548 13.818C4.96987 13.7557 5.09675 13.7198 5.22683 13.7129C5.35691 13.706 5.48688 13.7283 5.60722 13.7781C5.72756 13.828 5.83521 13.9042 5.92229 14.001C6.00937 14.0979 6.07367 14.213 6.11048 14.338L6.20448 14.657C6.73148 16.447 9.26948 16.447 9.79648 14.657L9.89048 14.338C9.92728 14.213 9.99158 14.0979 10.0787 14.001C10.1657 13.9042 10.2734 13.828 10.3937 13.7781C10.5141 13.7283 10.644 13.706 10.7741 13.7129C10.9042 13.7198 11.0311 13.7557 11.1455 13.818L11.4375 13.978C13.0775 14.871 14.8715 13.076 13.9775 11.437L13.8185 11.145C13.7562 11.0306 13.7203 10.9037 13.7134 10.7736C13.7065 10.6436 13.7288 10.5136 13.7786 10.3932C13.8285 10.2729 13.9046 10.1653 14.0015 10.0782C14.0984 9.99109 14.2135 9.92679 14.3385 9.88999L14.6575 9.79599C16.4475 9.26899 16.4475 6.73099 14.6575 6.20399L14.3385 6.10999C14.2135 6.07318 14.0984 6.00889 14.0015 5.9218C13.9046 5.83472 13.8285 5.72707 13.7786 5.60673C13.7288 5.48639 13.7065 5.35642 13.7134 5.22634C13.7203 5.09627 13.7562 4.96938 13.8185 4.85499L13.9785 4.56299C14.8715 2.92299 13.0765 1.12999 11.4375 2.02299L11.1455 2.18199C11.0311 2.24429 10.9042 2.28021 10.7741 2.28711C10.644 2.294 10.5141 2.2717 10.3937 2.22184C10.2734 2.17198 10.1657 2.09582 10.0787 1.99895C9.99158 1.90207 9.92728 1.78694 9.89048 1.66199L9.79648 1.34299ZM7.16348 1.62599C7.40948 0.790988 8.59148 0.790988 8.83748 1.62599L8.93148 1.94499C9.0105 2.21307 9.14851 2.46008 9.3354 2.66789C9.52229 2.8757 9.75332 3.03905 10.0116 3.14597C10.2698 3.25288 10.5487 3.30066 10.8278 3.28578C11.1069 3.2709 11.3791 3.19375 11.6245 3.05999L11.9155 2.89999C12.6795 2.48499 13.5155 3.31999 13.0995 4.08499L12.9405 4.37699C12.8069 4.62242 12.73 4.89462 12.7152 5.17364C12.7005 5.45267 12.7484 5.73146 12.8554 5.98957C12.9624 6.24769 13.1258 6.47859 13.3336 6.66536C13.5415 6.85214 13.7884 6.99005 14.0565 7.06899L14.3745 7.16299C15.2095 7.40899 15.2095 8.59099 14.3745 8.83699L14.0555 8.93099C13.7874 9.01001 13.5404 9.14802 13.3326 9.33491C13.1248 9.5218 12.9614 9.75283 12.8545 10.0111C12.7476 10.2693 12.6998 10.5482 12.7147 10.8273C12.7296 11.1064 12.8067 11.3786 12.9405 11.624L13.1005 11.915C13.5155 12.679 12.6805 13.515 11.9155 13.099L11.6245 12.94C11.379 12.8062 11.1067 12.7291 10.8276 12.7143C10.5484 12.6995 10.2695 12.7474 10.0113 12.8544C9.75301 12.9614 9.522 13.1249 9.33516 13.3328C9.14831 13.5407 9.01038 13.7878 8.93148 14.056L8.83748 14.374C8.59148 15.209 7.40948 15.209 7.16348 14.374L7.06948 14.055C6.99042 13.787 6.85243 13.5402 6.66561 13.3325C6.47879 13.1248 6.24787 12.9615 5.98977 12.8546C5.73166 12.7477 5.45292 12.6999 5.17394 12.7146C4.89497 12.7294 4.62284 12.8064 4.37748 12.94L4.08548 13.1C3.32148 13.515 2.48548 12.68 2.90148 11.915L3.06048 11.624C3.19443 11.3785 3.27173 11.1062 3.2867 10.827C3.30168 10.5478 3.25395 10.2688 3.14702 10.0104C3.04009 9.75207 2.87667 9.52093 2.66876 9.33397C2.46084 9.14701 2.2137 9.00897 1.94548 8.92999L1.62648 8.83599C0.791477 8.58999 0.791477 7.40799 1.62648 7.16199L1.94548 7.06799C2.21328 6.9889 2.46002 6.85093 2.66762 6.66418C2.87522 6.47742 3.03844 6.24662 3.14533 5.98864C3.25222 5.73067 3.30007 5.45206 3.28539 5.17321C3.27071 4.89435 3.19386 4.62231 3.06048 4.37699L2.90048 4.08499C2.48548 3.32099 3.32048 2.48499 4.08548 2.90099L4.37748 3.05999C4.62284 3.19356 4.89497 3.27056 5.17394 3.28534C5.45292 3.30012 5.73166 3.25231 5.98977 3.1454C6.24787 3.0385 6.47879 2.87522 6.66561 2.66751C6.85243 2.4598 6.99042 2.21293 7.06948 1.94499L7.16348 1.62599Z" fill="#101828"></path>
    </g>
    <defs>
      <clipPath id="clip0_1_1257">
        <rect width="16" height="16" fill="white"></rect>
      </clipPath>
    </defs>
  </symbol>

  </symbol>
</svg>