<svg width="0" height="0" class="hidden">
  <symbol viewBox="0 0 0 0" id="sprite">
    <symbol fill="none" xmlns="http://www.w3.org/2000/svg" viewBox="0 0 102 16" id="logo">
      <path d="M101.071 7.64528C100.388 7.64528 99.7639 7.68469 99.1991 7.76351C98.6342 7.84232 98.0234 7.99996 97.3666 8.23641V15.7635H93.938V4.57138H96.4799L96.9922 5.89158C97.6753 5.33986 98.3452 4.94577 99.002 4.70931C99.6589 4.47286 100.349 4.35463 101.071 4.35463V7.64528Z" fill="#3470FF"></path>
      <path d="M92.2985 15.6453C91.8781 15.7373 91.5037 15.803 91.1753 15.8424C90.8601 15.8818 90.4857 15.9015 90.0522 15.9015C88.7911 15.9015 87.9635 15.4943 87.5694 14.6798C87.0177 15.087 86.466 15.3957 85.9142 15.6059C85.3625 15.8161 84.7582 15.9212 84.1014 15.9212C83.5103 15.9212 82.9783 15.7964 82.5054 15.5468C82.0324 15.2972 81.6646 14.9622 81.4019 14.5419C81.1392 14.1215 81.0078 13.6617 81.0078 13.1626C81.0078 12.3218 81.218 11.6585 81.6384 11.1724C82.0719 10.6732 82.6499 10.2791 83.3723 9.99014C84.0948 9.68801 85.1917 9.32676 86.663 8.9064L87.2541 8.72906V8.65024C87.2541 7.4417 86.7024 6.83743 85.599 6.83743C85.0604 6.83743 84.4824 6.95566 83.865 7.19211C83.2476 7.42856 82.5382 7.80952 81.7369 8.33497L81.0866 5.97043C81.9799 5.45812 82.8863 5.05746 83.8058 4.76846C84.7385 4.47946 85.7238 4.33496 86.7615 4.33496C88.0226 4.33496 88.9881 4.67651 89.6581 5.35959C90.3412 6.04268 90.6827 7.21181 90.6827 8.86699V12.6108C90.6827 12.8998 90.7418 13.11 90.86 13.2414C90.9783 13.3596 91.1688 13.4187 91.4315 13.4187C91.6811 13.4187 91.9307 13.3859 92.1803 13.3202L92.2985 15.6453ZM84.4364 12.7094C84.4364 12.9721 84.5021 13.1626 84.6334 13.2808C84.7779 13.399 85.0013 13.4581 85.3034 13.4581C85.8551 13.4581 86.5054 13.2217 87.2541 12.7488V10.6601L86.9586 10.7586C85.9733 11.1133 85.3034 11.4286 84.9487 11.7044C84.6072 11.9672 84.4364 12.3021 84.4364 12.7094Z" fill="#3470FF"></path>
      <path d="M75.1822 16C73.5533 16 72.174 15.6847 71.0443 15.0542C69.9145 14.4105 69.0673 13.5632 68.5024 12.5123C67.9507 11.4482 67.6748 10.2923 67.6748 9.0443C67.6748 7.80949 67.9638 6.66663 68.5418 5.61573C69.1329 4.56482 70.0065 3.7241 71.1625 3.09355C72.3185 2.46301 73.7109 2.14774 75.3398 2.14774C76.8637 2.14774 78.2036 2.44331 79.3596 3.03444L78.6502 5.5172C78.1642 5.26761 77.6584 5.07057 77.133 4.92607C76.6075 4.76843 76.0098 4.68962 75.3398 4.68962C74.486 4.68962 73.7438 4.88666 73.1132 5.28075C72.4958 5.6617 72.0229 6.18716 71.6945 6.85711C71.3792 7.51392 71.2216 8.24956 71.2216 9.06401C71.2216 10.3514 71.5632 11.4088 72.2462 12.2364C72.9293 13.0509 73.908 13.4581 75.1822 13.4581C76.2725 13.4581 77.4482 13.1888 78.7093 12.6502L79.3793 15.0739C78.8407 15.3497 78.197 15.5731 77.4482 15.7438C76.6995 15.9146 75.9441 16 75.1822 16Z" fill="#3470FF"></path>
      <path d="M61.7836 0H65.2121V15.7636H61.7836V0Z" fill="#101828"></path>
      <path d="M60.1439 15.6453C59.7236 15.7373 59.3492 15.803 59.0208 15.8424C58.7055 15.8818 58.3311 15.9015 57.8976 15.9015C56.6365 15.9015 55.8089 15.4943 55.4149 14.6798C54.8631 15.087 54.3114 15.3957 53.7597 15.6059C53.208 15.8161 52.6037 15.9212 51.9469 15.9212C51.3557 15.9212 50.8237 15.7964 50.3508 15.5468C49.8779 15.2972 49.5101 14.9622 49.2474 14.5419C48.9846 14.1215 48.8533 13.6617 48.8533 13.1626C48.8533 12.3218 49.0635 11.6585 49.4838 11.1724C49.9173 10.6732 50.4953 10.2791 51.2178 9.99014C51.9403 9.68801 53.0372 9.32676 54.5085 8.9064L55.0996 8.72906V8.65024C55.0996 7.4417 54.5479 6.83743 53.4444 6.83743C52.9058 6.83743 52.3278 6.95566 51.7104 7.19211C51.093 7.42856 50.3837 7.80952 49.5823 8.33497L48.9321 5.97043C49.8254 5.45812 50.7318 5.05746 51.6513 4.76846C52.584 4.47946 53.5692 4.33496 54.607 4.33496C55.8681 4.33496 56.8336 4.67651 57.5035 5.35959C58.1866 6.04268 58.5282 7.21181 58.5282 8.86699V12.6108C58.5282 12.8998 58.5873 13.11 58.7055 13.2414C58.8237 13.3596 59.0142 13.4187 59.2769 13.4187C59.5265 13.4187 59.7761 13.3859 60.0257 13.3202L60.1439 15.6453ZM52.2818 12.7094C52.2818 12.9721 52.3475 13.1626 52.4789 13.2808C52.6234 13.399 52.8467 13.4581 53.1488 13.4581C53.7006 13.4581 54.3508 13.2217 55.0996 12.7488V10.6601L54.804 10.7586C53.8188 11.1133 53.1488 11.4286 52.7942 11.7044C52.4526 11.9672 52.2818 12.3021 52.2818 12.7094Z" fill="#101828"></path>
      <path d="M47.6242 15.0345C47.2301 15.3104 46.7572 15.5272 46.2055 15.6848C45.6669 15.8293 45.1414 15.9015 44.6291 15.9015C43.2367 15.9015 42.1989 15.5994 41.5158 14.9951C40.8327 14.3777 40.4912 13.4976 40.4912 12.3547V6.99512H38.8163V5.55669L40.9247 4.7094L41.8705 1.69461H43.9197V4.57147H47.0725V6.99512H43.9197V11.5271C43.9197 12.2234 44.0314 12.716 44.2547 13.005C44.478 13.294 44.813 13.4385 45.2596 13.4385C45.8376 13.4385 46.4485 13.2677 47.0922 12.9262L47.6242 15.0345Z" fill="#101828"></path>
      <path d="M33.1902 4.33496C34.6483 4.33496 35.6532 4.72248 36.2049 5.49752C36.7698 6.27257 37.0522 7.38915 37.0522 8.84728V15.7636H33.6237V9.28078C33.6237 8.36124 33.512 7.72413 33.2887 7.36945C33.0785 7.01477 32.6647 6.83743 32.0473 6.83743C31.3773 6.83743 30.6943 7.06075 29.998 7.50738V15.7636H26.5695V4.57142H29.1113L29.466 5.49752C30.7534 4.72248 31.9948 4.33496 33.1902 4.33496Z" fill="#101828"></path>
      <path d="M17.0283 10.798C17.094 11.7307 17.3239 12.4204 17.718 12.867C18.1121 13.3136 18.7163 13.5369 19.5308 13.5369C20.1351 13.5369 20.6934 13.4319 21.2057 13.2217C21.7311 12.9984 22.3288 12.67 22.9988 12.2365L23.9249 14.4039C23.2287 14.9688 22.539 15.376 21.8559 15.6256C21.1728 15.8752 20.3912 16 19.5111 16C18.2106 16 17.1203 15.7504 16.2402 15.2512C15.36 14.7389 14.7032 14.0493 14.2697 13.1823C13.8493 12.3021 13.6392 11.3038 13.6392 10.1872C13.6392 8.41379 14.1383 6.99506 15.1367 5.93102C16.1351 4.86698 17.5932 4.33496 19.5111 4.33496C21.0349 4.33496 22.1909 4.74875 22.9791 5.57634C23.7804 6.39079 24.1876 7.55336 24.2008 9.06403C24.2008 9.65517 24.1154 10.2332 23.9446 10.798H17.0283ZM20.8707 8.57142C20.8838 8.4926 20.8904 8.38751 20.8904 8.25615C20.8773 7.71756 20.7328 7.31034 20.4569 7.03447C20.181 6.74547 19.8001 6.60098 19.314 6.60098C18.1581 6.60098 17.4356 7.25779 17.1466 8.57142H20.8707Z" fill="#101828"></path>
      <path d="M5.43843 10.8375H3.5468V15.7636H0V2.36454H5.35962C7.27752 2.36454 8.67654 2.69294 9.55667 3.34976C10.4368 3.99344 10.8769 5.0115 10.8769 6.40395C10.8769 8.21676 10.2135 9.43187 8.88672 10.0493L12.6503 15.7636H8.55174L5.43843 10.8375ZM3.5468 8.3744H5.35962C6.05584 8.3744 6.55502 8.2299 6.85716 7.9409C7.17243 7.6519 7.33006 7.20527 7.33006 6.601C7.33006 5.97045 7.179 5.51725 6.87686 5.24139C6.57472 4.96553 6.06898 4.82759 5.35962 4.82759H3.5468V8.3744Z" fill="#101828"></path>
    </symbol>
    <symbol fill="none" xmlns="http://www.w3.org/2000/svg" viewBox="0 0 16 16" id="arrow-down">
      <path fill-rule="evenodd" clip-rule="evenodd" d="M1.14689 4.14689C1.19334 4.10033 1.24852 4.06339 1.30926 4.03818C1.37001 4.01297 1.43513 4 1.50089 4C1.56666 4 1.63178 4.01297 1.69253 4.03818C1.75327 4.06339 1.80845 4.10033 1.85489 4.14689L7.50089 9.79389L13.1469 4.14689C13.1934 4.10041 13.2486 4.06353 13.3093 4.03837C13.37 4.01321 13.4352 4.00026 13.5009 4.00026C13.5666 4.00026 13.6317 4.01321 13.6925 4.03837C13.7532 4.06353 13.8084 4.10041 13.8549 4.14689C13.9014 4.19338 13.9383 4.24857 13.9634 4.30931C13.9886 4.37005 14.0015 4.43515 14.0015 4.50089C14.0015 4.56664 13.9886 4.63174 13.9634 4.69248C13.9383 4.75322 13.9014 4.80841 13.8549 4.85489L7.85489 10.8549C7.80845 10.9015 7.75327 10.9384 7.69253 10.9636C7.63178 10.9888 7.56666 11.0018 7.50089 11.0018C7.43513 11.0018 7.37001 10.9888 7.30926 10.9636C7.24852 10.9384 7.19334 10.9015 7.14689 10.8549L1.14689 4.85489C1.10033 4.80845 1.06339 4.75327 1.03818 4.69253C1.01297 4.63178 1 4.56666 1 4.50089C1 4.43513 1.01297 4.37001 1.03818 4.30926C1.06339 4.24851 1.10033 4.19334 1.14689 4.14689Z" fill="#101828"></path>
    </symbol>
  <symbol fill="none" xmlns="http://www.w3.org/2000/svg" viewBox="0 0 16 16" id="arrow-up">
    <path fill-rule="evenodd" clip-rule="evenodd" d="M7.14663 4.14689C7.19308 4.10033 7.24825 4.06339 7.309 4.03818C7.36974 4.01297 7.43486 4 7.50063 4C7.5664 4 7.63152 4.01297 7.69226 4.03818C7.75301 4.06339 7.80819 4.10033 7.85463 4.14689L13.8546 10.1469C13.9485 10.2408 14.0013 10.3681 14.0013 10.5009C14.0013 10.6337 13.9485 10.761 13.8546 10.8549C13.7607 10.9488 13.6334 11.0015 13.5006 11.0015C13.3679 11.0015 13.2405 10.9488 13.1466 10.8549L7.50063 5.20789L1.85463 10.8549C1.76075 10.9488 1.63341 11.0015 1.50063 11.0015C1.36786 11.0015 1.24052 10.9488 1.14663 10.8549C1.05274 10.761 1 10.6337 1 10.5009C1 10.3681 1.05274 10.2408 1.14663 10.1469L7.14663 4.14689Z" fill="#101828"></path>
  </symbol>
  <symbol fill="none" xmlns="http://www.w3.org/2000/svg" viewBox="0 0 16 16" id="heart">
    <path d="M7.9999 2.74805L7.2829 2.01105C5.5999 0.281049 2.5139 0.878049 1.39989 3.05305C0.876895 4.07605 0.758895 5.55305 1.71389 7.43805C2.63389 9.25305 4.5479 11.427 7.9999 13.795C11.4519 11.427 13.3649 9.25305 14.2859 7.43805C15.2409 5.55205 15.1239 4.07605 14.5999 3.05305C13.4859 0.878049 10.3999 0.280049 8.7169 2.01005L7.9999 2.74805ZM7.9999 15C-7.33311 4.86805 3.27889 -3.03995 7.82389 1.14305C7.88389 1.19838 7.94256 1.25538 7.9999 1.31405C8.05623 1.25501 8.11494 1.1983 8.17589 1.14405C12.7199 -3.04195 23.3329 4.86705 7.9999 15Z" fill="#F2F4F7"></path>
  </symbol>
  <symbol fill="none" xmlns="http://www.w3.org/2000/svg" viewBox="0 0 16 16" id="heart-favourite">
    <path fill-rule="evenodd" clip-rule="evenodd" d="M7.99978 1.31405C12.4378 -3.24795 23.5338 4.73505 7.99978 15.0001C-7.53422 4.73605 3.56178 -3.24795 7.99978 1.31405Z" fill="#3470FF"></path>
  </symbol>
  <symbol fill="none" xmlns="http://www.w3.org/2000/svg" viewBox="0 0 12 15" id="location">
    <path d="M9.53063 8.38125C9.03938 9.37687 8.37375 10.3688 7.69313 11.2594C7.04677 12.0984 6.35642 12.9027 5.625 13.6687C4.89358 12.9027 4.20324 12.0984 3.55688 11.2594C2.87625 10.3688 2.21063 9.37687 1.71938 8.38125C1.2225 7.37531 0.9375 6.43313 0.9375 5.625C0.9375 4.3818 1.43136 3.18951 2.31044 2.31044C3.18951 1.43136 4.3818 0.9375 5.625 0.9375C6.8682 0.9375 8.06049 1.43136 8.93956 2.31044C9.81864 3.18951 10.3125 4.3818 10.3125 5.625C10.3125 6.43313 10.0266 7.37531 9.53063 8.38125ZM5.625 15C5.625 15 11.25 9.66938 11.25 5.625C11.25 4.13316 10.6574 2.70242 9.60248 1.64752C8.54758 0.592632 7.11684 0 5.625 0C4.13316 0 2.70242 0.592632 1.64752 1.64752C0.592632 2.70242 2.22302e-08 4.13316 0 5.625C0 9.66938 5.625 15 5.625 15Z" fill="#101828"></path>
    <path d="M5.625 7.5C5.12772 7.5 4.65081 7.30246 4.29917 6.95083C3.94754 6.59919 3.75 6.12228 3.75 5.625C3.75 5.12772 3.94754 4.65081 4.29917 4.29917C4.65081 3.94754 5.12772 3.75 5.625 3.75C6.12228 3.75 6.59919 3.94754 6.95082 4.29917C7.30246 4.65081 7.5 5.12772 7.5 5.625C7.5 6.12228 7.30246 6.59919 6.95082 6.95083C6.59919 7.30246 6.12228 7.5 5.625 7.5ZM5.625 8.4375C6.37092 8.4375 7.08629 8.14118 7.61374 7.61374C8.14118 7.08629 8.4375 6.37092 8.4375 5.625C8.4375 4.87908 8.14118 4.16371 7.61374 3.63626C7.08629 3.10882 6.37092 2.8125 5.625 2.8125C4.87908 2.8125 4.16371 3.10882 3.63626 3.63626C3.10882 4.16371 2.8125 4.87908 2.8125 5.625C2.8125 6.37092 3.10882 7.08629 3.63626 7.61374C4.16371 8.14118 4.87908 8.4375 5.625 8.4375Z" fill="#101828"></path>
  </symbol>
  <symbol fill="none" xmlns="http://www.w3.org/2000/svg" viewBox="0 0 16 16" id="check-circle">
    <g clip-path="url(#clip0_1_1233)">
      <path d="M8 15C6.14348 15 4.36301 14.2625 3.05025 12.9497C1.7375 11.637 1 9.85652 1 8C1 6.14348 1.7375 4.36301 3.05025 3.05025C4.36301 1.7375 6.14348 1 8 1C9.85652 1 11.637 1.7375 12.9497 3.05025C14.2625 4.36301 15 6.14348 15 8C15 9.85652 14.2625 11.637 12.9497 12.9497C11.637 14.2625 9.85652 15 8 15ZM8 16C10.1217 16 12.1566 15.1571 13.6569 13.6569C15.1571 12.1566 16 10.1217 16 8C16 5.87827 15.1571 3.84344 13.6569 2.34315C12.1566 0.842855 10.1217 0 8 0C5.87827 0 3.84344 0.842855 2.34315 2.34315C0.842855 3.84344 0 5.87827 0 8C0 10.1217 0.842855 12.1566 2.34315 13.6569C3.84344 15.1571 5.87827 16 8 16Z" fill="#101828"></path>
      <path d="M10.9703 4.97001L10.9503 4.99201L7.47734 9.41701L5.38434 7.32301C5.24216 7.19053 5.05412 7.1184 4.85982 7.12183C4.66551 7.12526 4.48013 7.20397 4.34272 7.34138C4.2053 7.4788 4.12659 7.66418 4.12316 7.85848C4.11974 8.05278 4.19186 8.24083 4.32434 8.38301L6.97034 11.03C7.04162 11.1012 7.1265 11.1572 7.21992 11.1949C7.31334 11.2325 7.41339 11.2509 7.51408 11.2491C7.61478 11.2472 7.71407 11.2251 7.80604 11.184C7.898 11.1429 7.98074 11.0838 8.04934 11.01L12.0413 6.02001C12.1773 5.87734 12.2516 5.6869 12.2482 5.48987C12.2449 5.29285 12.1641 5.10505 12.0234 4.9671C11.8827 4.82915 11.6933 4.75211 11.4963 4.75266C11.2992 4.7532 11.1103 4.83128 10.9703 4.97001Z" fill="#101828"></path>
    </g>
    <defs>
      <clipPath id="clip0_1_1233">
        <rect width="16" height="16" fill="white"></rect>
      </clipPath>
    </defs>
  </symbol>
  </symbol>
</svg>